<?xml version="1.0" encoding="utf-8"?>
<!-- Generator: Adobe Illustrator 18.0.0, SVG Export Plug-In . SVG Version: 6.00 Build 0)  -->
<!DOCTYPE svg PUBLIC "-//W3C//DTD SVG 1.1//EN" "http://www.w3.org/Graphics/SVG/1.1/DTD/svg11.dtd">
<svg version="1.1" id="Layer_1" xmlns="http://www.w3.org/2000/svg" xmlns:xlink="http://www.w3.org/1999/xlink" x="0px" y="0px"
	 viewBox="0 0 200 200" enable-background="new 0 0 200 200" xml:space="preserve">
<g>
	
		<rect x="117.4" y="73.9" transform="matrix(0.8829 -0.4695 0.4695 0.8829 -49.5785 76.6211)" fill="#2B2F40" width="22.9" height="127.7"/>
	<path fill="#E6E6E6" d="M92.1,53.9l-12.2,6.5c-2.2,1.2-3.1,3.9-1.9,6.1l10.7,20.2L109,76L98.3,55.8C97.1,53.6,94.4,52.7,92.1,53.9z
		"/>
	<g>
		<path fill="#E6E6E6" d="M49.7,37.9c0,0-0.2-8.3-5.3-13.4S31,19.2,31,19.2s8.3-0.2,13.4-5.3s5.3-13.4,5.3-13.4s0.2,8.3,5.3,13.4
			s13.4,5.3,13.4,5.3s-8.3,0.2-13.4,5.3S49.7,37.9,49.7,37.9z"/>
	</g>
	<g>
		<path fill="#E6E6E6" d="M47.8,90.1c0,0-0.2-7.5-4.7-12c-4.5-4.5-12-4.7-12-4.7s7.5-0.2,12-4.7c4.5-4.5,4.7-12,4.7-12
			s0.2,7.5,4.7,12c4.5,4.5,12,4.7,12,4.7s-7.5,0.2-12,4.7C48,82.6,47.8,90.1,47.8,90.1z"/>
	</g>
	<g>
		<path fill="#E6E6E6" d="M132.8,63.5c0,0-0.2-6.4-4.1-10.3c-3.9-3.9-10.3-4.1-10.3-4.1s6.4-0.2,10.3-4.1c3.9-3.9,4.1-10.3,4.1-10.3
			s0.2,6.4,4.1,10.3c3.9,3.9,10.3,4.1,10.3,4.1s-6.4,0.2-10.3,4.1C133,57.1,132.8,63.5,132.8,63.5z"/>
	</g>
</g>
</svg>
